# AST/ASF file generated using VICON BodyLanguage
# -----------------------------------------------
:version 1.10
:name VICON
:units
  mass 1.0
  length 0.45
  angle deg
:documentation
   .ast/.asf automatically generated from VICON data using
   VICON BodyBuilder and BodyLanguage model FoxedUp or BRILLIANT.MOD
:root
   order TX TY TZ RX RY RZ
   axis XYZ
   position 0 0 0  
   orientation 0 0 0 
:bonedata
  begin
     id 1 
     name lhipjoint
     direction 0.643824 -0.71708 0.266994 
     length 2.52133 
     axis 0 0 0  XYZ
  end
  begin
     id 2 
     name lfemur
     direction 0.34202 -0.939693 0  
     length 7.51824  
     axis 0 0 20  XYZ
    dof rx ry rz
    limits (-160.0 20.0)
           (-70.0 70.0)
           (-60.0 70.0)
  end
  begin
     id 3 
     name ltibia
     direction 0.34202 -0.939693 0   
     length 7.3685   
     axis 0 0 20   XYZ
    dof rx
    limits (-10.0 170.0)
  end
  begin
     id 4 
     name lfoot
     direction 0.105419 -0.289636 0.951314   
     length 2.20972   
     axis -90 7.62852e-016 20   XYZ
    dof rx rz
    limits (-45.0 90.0)
           (-70.0 20.0)
  end
  begin
     id 5 
     name ltoes
     direction 1.53549e-011 -4.21833e-011 1   
     length 1.10139   
     axis -90 7.62852e-016 20   XYZ
    dof rx
    limits (-90.0 20.0)
  end
  begin
     id 6 
     name rhipjoint
     direction -0.608823 -0.743445 0.276811   
     length 2.43192  
     axis 0 0 0  XYZ 
  end
  begin
     id 7 
     name rfemur
     direction -0.34202 -0.939693 0   
     length 7.69715   
     axis 0 0 -20   XYZ
    dof rx ry rz
    limits (-160.0 20.0)
           (-70.0 70.0)
           (-70.0 60.0)
  end
  begin
     id 8 
     name rtibia
     direction -0.34202 -0.939693 0   
     length 7.44924   
     axis 0 0 -20   XYZ
    dof rx
    limits (-10.0 170.0)
 end
 begin
     id 9 
     name rfoot
     direction -0.103614 -0.284677 0.953007   
     length 2.22623  
     axis -90 -7.62852e-016 -20   XYZ
    dof rx rz
    limits (-45.0 90.0)
           (-20.0 70.0)
  end
  begin
     id 10 
     name rtoes
     direction -1.53537e-011 -4.22026e-011 1   
     length 1.11   
     axis -90 -7.62852e-016 -20   XYZ
    dof rx
    limits (-90.0 20.0)
  end
  begin
     id 11 
     name lowerback
     direction -0.0101212 0.99662 -0.0815298   
     length 2.08277   
     axis 0 0 0   XYZ
    dof rx ry rz
    limits (-20.0 45.0)
           (-30.0 30.0)
           (-30.0 30.0)
  end
  begin
     id 12 
     name upperback
     direction 0.024314 0.999591 -0.0150645   
     length 2.08524   
     axis 0 0 0   XYZ
    dof rx ry rz
    limits (-20.0 45.0)
           (-30.0 30.0)
           (-30.0 30.0)
  end
  begin
     id 13 
     name thorax
     direction 0.0285959 0.999323 0.0231357   
     length 2.09645   
     axis 0 0 0   XYZ
    dof rx ry rz
    limits (-20.0 45.0)
           (-30.0 30.0)
           (-30.0 30.0)
  end
  begin
     id 14 
     name lowerneck
     direction -0.065512 0.979301 0.191515   
     length 1.63798   
     axis 0 0 0   XYZ
    dof rx ry rz
    limits (-20.0 45.0)
           (-30.0 30.0)
           (-30.0 30.0)
  end
  begin
     id 15 
     name upperneck
     direction 0.0498479 0.98191 -0.182667   
     length 1.68731   
     axis 0 0 0   XYZ
    dof rx ry rz
    limits (-20.0 45.0)
           (-30.0 30.0)
           (-30.0 30.0)
  end
  begin
     id 16
     name head
     direction 0.0230358 0.996257 -0.0833175  
     length 1.69785  
     axis 0 0 0   XYZ
    dof rx ry rz
    limits (-20.0 45.0)
           (-30.0 30.0)
           (-30.0 30.0)
  end
  begin
     id 17 
     name lclavicle
     direction 0.967963 0.201165 -0.150269  
     length 3.63976  
     axis 0 0 0   XYZ
    dof ry rz
    limits (-20.0 10.0)
           (0.0 20.0)
  end
  begin
     id 18 
     name lhumerus
     direction 1 -4.48954e-011 -2.92837e-028   
     length 5.32462   
     axis 180 -30 -90   XYZ
    dof rx ry rz
    limits (-60.0 90.0)
           (-90.0 90.0)
           (-90.0 90.0)
  end
  begin
     id 19
     name lradius
     direction 1 -4.48958e-011 -6.39511e-027   
     length 3.48402   
     axis 180 -30 -90   XYZ
    dof rx
    limits (-10.0 170.0)
  end
  begin
     id 20
     name lwrist
     direction 1 -4.48975e-011 -1.1413e-026   
     length 1.74201   
     axis 6.88575e-015 90 90   XYZ
    dof ry
    limits (-180.0 0.0)
 end
  begin
     id 21 
     name lhand
     direction 1 -4.48899e-011 -2.28192e-026   
     length 0.572476   
     axis 1.45643e-014 90 90   XYZ
    dof rx rz
    limits (-90.0 90.0)
           (-45.0 45.0)
  end
  begin
     id 22 
     name lfingers
     direction 1 -4.49155e-011 -4.5684e-026   
     length 0.461545   
     axis 2.91283e-014 90 90   XYZ
    dof rx
    limits (0.0 90.0)
  end
  begin
     id 23
     name lthumb
     direction 0.707107 -6.34943e-011 0.707107   
     length 0.662688   
     axis -90 45 -2.25915e-014   XYZ
    dof rx rz
    limits (-45.0 45.0)
           (-45.0 45.0)
  end
  begin
     id 24 
     name rclavicle
     direction -0.964103 0.264019 -0.0282629   
     length 3.54491  
     axis 0 0 0   XYZ 
    dof ry rz
    limits (-10.0 20.0)
           (-20.0 0.0)
  end
  begin
     id 25 
     name rhumerus
     direction -1 -4.48964e-011 -2.45032e-027  
     length 5.33589   
     axis 180 30 90   XYZ
    dof rx ry rz
    limits (-90.0 60.0)
           (-90.0 90.0)
           (-90.0 90.0)
  end
  begin
     id 26 
     name rradius
     direction -1 -4.48987e-011 -1.55093e-027   
     length 3.64134   
     axis 180 30 90   XYZ
    dof rx
    limits (-10.0 170.0)
  end
  begin
     id 27 
     name rwrist
     direction -1 -4.4897e-011 -1.14128e-026   
     length 1.82067   
     axis 6.88575e-015 -90 -90   XYZ
    dof ry
    limits (-180.0 0.0)
  end
  begin
     id 28
     name rhand
     direction -1 -4.49021e-011 -2.28301e-026   
     length 0.734811   
     axis 1.45643e-014 -90 -90   XYZ
    dof rx rz
    limits (-90.0 90.0)
           (-45.0 45.0)
  end
  begin
     id 29
     name rfingers
     direction -1 -4.48862e-011 -4.56319e-026   
     length 0.592424   
     axis 2.91283e-014 -90 -90   XYZ
    dof rx
    limits (0.0 90.0)
  end
  begin
     id 30
     name rthumb
     direction -0.707107 -6.34978e-011 0.707107   
     length 0.850605   
     axis -90 -45 2.25915e-014   XYZ
    dof rx rz
    limits (-45.0 45.0)
           (-45.0 45.0)
  end
:hierarchy
  begin
    root lhipjoint rhipjoint lowerback
    lhipjoint lfemur
    lfemur ltibia
    ltibia lfoot
    lfoot ltoes
    rhipjoint rfemur
    rfemur rtibia
    rtibia rfoot
    rfoot rtoes
    lowerback upperback
    upperback thorax
    thorax lowerneck lclavicle rclavicle
    lowerneck upperneck
    upperneck head
    lclavicle lhumerus
    lhumerus lradius
    lradius lwrist
    lwrist lhand lthumb
    lhand lfingers
    rclavicle rhumerus
    rhumerus rradius
    rradius rwrist
    rwrist rhand rthumb
    rhand rfingers
  end

#!OML:ASF F:\VICON\USERDATA\INSTALL\rory3\rory3.ASF
:FULLY-SPECIFIED
:DEGREES
152
root 2.75275 18.0176 7.8043 -172.398 -9.80982 177.413
lowerback 6.13661 1.12062 -0.747332
upperback 1.28092 1.40201 2.48862
thorax -2.20096 0.664586 2.87547
lowerneck -18.1632 -2.63335 -10.6774
upperneck 35.8357 -4.21421 2.89021
head 16.1291 -3.73142 2.06292
rclavicle -2.34566e-014 3.18055e-014
rhumerus 1.61823 7.80901 -65.6056
rradius 59.1797
rwrist 2.01284
rhand -30.0254 2.09035
rfingers 7.12502
rthumb -3.34199 -27.8632
lclavicle -2.34566e-014 3.18055e-014
lhumerus -28.3397 3.50787 87.2403
lradius 41.1758
lwrist -5.76709
lhand -14.1434 23.1957
lfingers 7.12502
lthumb 11.9908 52.8323
rfemur -23.7536 -2.45161 22.1161
rtibia 27.9718
rfoot -11.4138 -6.31572
rtoes 16.9973
lfemur -27.6183 -1.01771 -19.4647
ltibia 66.1109
lfoot -10.303 -1.35972
ltoes -15.3129
153
root 2.77858 18.0371 7.76084 -172.695 -9.83726 177.277
lowerback 6.61426 1.26828 -0.842811
upperback 1.33016 1.58876 2.43944
thorax -2.42843 0.75798 2.8554
lowerneck -18.0292 -2.69302 -10.7436
upperneck 35.8142 -4.31594 2.92988
head 16.0994 -3.77697 2.0742
rclavicle -2.98177e-014 1.59028e-015
rhumerus 2.85894 7.66458 -65.0366
rradius 59.321
rwrist 1.35627
rhand -30.36 0.796374
rfingers 7.12502
rthumb -3.66508 -29.1519
lclavicle -2.98177e-014 1.59028e-015
lhumerus -28.3166 3.48648 87.2333
lradius 41.6677
lwrist -5.81232
lhand -14.0074 22.7441
lfingers 7.12502
lthumb 12.1219 52.3729
rfemur -23.0282 -2.25966 22.031
rtibia 27.5605
rfoot -11.5274 -6.57585
rtoes 17.5586
lfemur -28.7817 -0.461643 -19.6153
ltibia 67.7562
lfoot -10.4719 -1.15897
ltoes -14.7808
154
root 2.80702 18.0528 7.71048 -172.703 -10.0606 177.202
lowerback 6.68351 1.3697 -0.875123
upperback 1.31414 1.72346 2.3977
thorax -2.49088 0.826918 2.8169
lowerneck -17.926 -2.78766 -10.8304
upperneck 35.8023 -4.47895 3.02515
head 16.0903 -3.84155 2.10139
rclavicle -1.5704e-014 -7.95139e-015
rhumerus 4.16581 7.30195 -64.5356
rradius 58.9858
rwrist 1.34792
rhand -30.5687 0.983027
rfingers 7.12502
rthumb -3.86664 -28.9616
lclavicle -1.5704e-014 -7.95139e-015
lhumerus -28.3056 3.37481 87.2084
lradius 42.1665
lwrist -5.76861
lhand -13.8017 22.9077
lfingers 7.12502
lthumb 12.3203 52.5247
rfemur -22.6216 -2.03197 22.0329
rtibia 27.1725
rfoot -11.7567 -7.01973
rtoes 17.7766
lfemur -30.3059 -0.0742431 -19.6553
ltibia 69.4139
lfoot -11.2285 -1.18381
ltoes -15.6508
155
root 2.82394 18.064 7.666 -172.803 -10.6388 177.206
lowerback 6.78876 1.36137 -0.597629
upperback 1.36917 1.72633 2.37472
thorax -2.48392 0.823736 2.63499
lowerneck -17.8458 -2.92324 -10.8712
upperneck 35.7144 -4.64495 2.99232
head 16.0452 -3.9097 2.06507
rclavicle -3.45885e-014 -1.59028e-014
rhumerus 5.58775 6.89322 -63.9382
rradius 58.6611
rwrist 1.18427
rhand -30.9095 0.798239
rfingers 7.12502
rthumb -4.19579 -29.1402
lclavicle -3.45885e-014 -1.59028e-014
lhumerus -28.1253 3.23798 87.2811
lradius 42.5706
lwrist -5.48359
lhand -13.5255 23.1968
lfingers 7.12502
lthumb 12.5866 52.7976
rfemur -22.1815 -2.20214 22.1468
rtibia 26.8096
rfoot -11.8417 -7.51735
rtoes 17.1549
lfemur -31.8693 -0.0206987 -19.6505
ltibia 71.0836
lfoot -11.9084 -1.31291
ltoes -16.8278
156
root 2.84474 18.0703 7.61855 -172.719 -11.3321 177.095
lowerback 6.65974 1.28546 -0.543684
upperback 1.38613 1.62858 2.36778
thorax -2.38774 0.774289 2.60867
lowerneck -17.8331 -3.02419 -10.8616
upperneck 35.7269 -4.75694 2.87661
head 16.057 -3.96803 1.99198
rclavicle -1.41137e-014 -2.54444e-014
rhumerus 6.90168 6.71434 -63.2683
rradius 58.5429
rwrist 0.669093
rhand -31.2312 0.092499
rfingers 7.12502
rthumb -4.50635 -29.8396
lclavicle -1.41137e-014 -2.54444e-014
lhumerus -27.9799 3.23902 87.3742
lradius 42.976
lwrist -5.1071
lhand -13.0428 23.6622
lfingers 7.12502
lthumb 13.052 53.2338
rfemur -21.7868 -2.52696 22.1947
rtibia 26.5054
rfoot -12.164 -7.79994
rtoes 17.4371
lfemur -33.6861 -0.0826079 -19.7661
ltibia 72.7807
lfoot -12.3526 -1.61618
ltoes -16.7487
157
root 2.86864 18.0906 7.57256 -172.757 -11.7015 177.033
lowerback 6.74772 1.35438 -0.499459
upperback 1.4227 1.72144 2.33162
thorax -2.40129 0.819528 2.5368
lowerneck -17.8278 -3.14129 -10.8467
upperneck 35.7177 -4.92685 2.87196
head 16.0675 -4.03026 1.95595
rclavicle 3.04141e-014 -6.36111e-015
rhumerus 7.67664 6.1804 -62.7885
rradius 59.4264
rwrist 0.230492
rhand -30.7616 -0.224822
rfingers 7.12502
rthumb -4.05297 -30.166
lclavicle 3.04141e-014 -6.36111e-015
lhumerus -27.8193 3.14049 87.4406
lradius 43.3657
lwrist -4.81776
lhand -12.8439 23.6525
lfingers 7.12502
lthumb 13.2436 53.2118
rfemur -21.605 -2.43841 22.1988
rtibia 26.1879
rfoot -12.0216 -8.54068
rtoes 15.49
lfemur -35.2983 0.19547 -19.9078
ltibia 74.3771
lfoot -12.8946 -1.91421
ltoes -17.0501
158
root 2.89136 18.0903 7.53156 -172.898 -12.0305 177.133
lowerback 6.92859 1.4298 -0.269462
upperback 1.47645 1.83297 2.32693
thorax -2.44459 0.870932 2.38939
lowerneck -17.8816 -3.25463 -10.8985
upperneck 35.7463 -5.09795 2.96035
head 16.1167 -4.08996 1.97044
rclavicle 1.98785e-015 2.22639e-014
rhumerus 8.88951 5.80028 -62.1826
rradius 59.3682
rwrist -0.599182
rhand -30.1821 -0.0113786
rfingers 7.12502
rthumb -3.49328 -29.9625
lclavicle 1.98785e-015 2.22639e-014
lhumerus -27.7264 2.98258 87.4497
lradius 43.8036
lwrist -4.48344
lhand -12.1503 23.5922
lfingers 7.12502
lthumb 13.9121 53.1068
rfemur -20.9921 -2.3931 22.3928
rtibia 25.8356
rfoot -12.2998 -8.66616
rtoes 16.1499
lfemur -36.9377 0.499104 -19.9124
ltibia 76.019
lfoot -13.4205 -2.20983
ltoes -17.9362
159
root 2.91434 18.1015 7.49222 -173.036 -12.4148 177.205
lowerback 7.13141 1.48597 -0.0685574
upperback 1.5022 1.91951 2.337
thorax -2.52851 0.910725 2.27478
lowerneck -17.7294 -3.34284 -10.8699
upperneck 35.6673 -5.22786 2.9048
head 16.0509 -4.14194 1.92019
rclavicle -5.32743e-014 1.59028e-015
rhumerus 10.2534 5.55656 -61.4303
rradius 58.6986
rwrist -0.951801
rhand -29.8633 0.379352
rfingers 7.12502
rthumb -3.18545 -29.5766
lclavicle -5.32743e-014 1.59028e-015
lhumerus -27.678 2.87786 87.4855
lradius 44.2423
lwrist -4.15072
lhand -10.7889 24.4139
lfingers 7.12502
lthumb 15.2239 53.8338
rfemur -20.4426 -2.48107 22.5721
rtibia 25.3943
rfoot -12.3282 -8.89887
rtoes 16.0721
lfemur -38.5584 0.732073 -19.9858
ltibia 77.5522
lfoot -14.0195 -2.52618
ltoes -18.6311
160
root 2.93464 18.1196 7.45386 -173.146 -12.8566 177.238
lowerback 7.32138 1.52601 0.130742
upperback 1.52459 1.98558 2.33889
thorax -2.60708 0.940419 2.15446
lowerneck -17.5023 -3.4267 -10.864
upperneck 35.5119 -5.34634 2.86637
head 15.9297 -4.18631 1.88622
rclavicle 2.62396e-014 -3.33958e-014
rhumerus 11.6865 5.37781 -60.5552
rradius 57.9755
rwrist -1.15507
rhand -30.6044 0.331021
rfingers 7.12502
rthumb -3.9011 -29.613
lclavicle 2.62396e-014 -3.33958e-014
lhumerus -27.598 2.68376 87.5923
lradius 44.7205
lwrist -3.78712
lhand -10.8141 24.492
lfingers 7.12502
lthumb 15.1996 53.9137
rfemur -19.915 -2.59326 22.6954
rtibia 24.862
rfoot -12.3196 -9.25463
rtoes 16.0913
lfemur -40.2129 0.804056 -20.112
ltibia 79.032
lfoot -14.5687 -2.8619
ltoes -18.5855
161
root 2.9515 18.1332 7.41383 -173.18 -13.4207 177.262
lowerback 7.43597 1.53673 0.396727
upperback 1.51611 2.02004 2.31953
thorax -2.67085 0.954918 1.97886
lowerneck -17.4831 -3.54291 -10.9169
upperneck 35.5666 -5.52258 2.89044
head 15.9731 -4.26308 1.87211
rclavicle 1.39149e-014 2.8625e-014
rhumerus 12.8979 5.11361 -59.7096
rradius 57.3873
rwrist -1.48814
rhand -31.7538 0.479935
rfingers 7.12502
rthumb -5.01103 -29.4408
lclavicle 1.39149e-014 2.8625e-014
lhumerus -27.5133 2.47796 87.661
lradius 45.1013
lwrist -3.55062
lhand -11.5402 23.6702
lfingers 7.12502
lthumb 14.5 53.1435
rfemur -19.4053 -2.8246 22.8165
rtibia 24.2872
rfoot -12.4317 -9.49394
rtoes 16.5041
lfemur -41.9577 0.700938 -20.2601
ltibia 80.4474
lfoot -14.9574 -3.09716
ltoes -18.612
